2.5Hzhigh3min_grf.mot
version=1
nRows=17
nColumns 19
inDegrees=yes
endheader
time	1_ground_force_vx	1_ground_force_vy	1_ground_force_vz	1_ground_force_px	1_ground_force_py	1_ground_force_pz	1_ground_torque_x	1_ground_torque_y	1_ground_torque_z	2_ground_force_vx	2_ground_force_vy	2_ground_force_vz	2_ground_force_px	2_ground_force_py	2_ground_force_pz	2_ground_torque_x	2_ground_torque_y	2_ground_torque_z
            0.005000	            7.691281	           29.213178	           -1.911555	           -0.217238	            0.006220	           -0.403837	            0.190871	            0.724971	           -0.047438	           20.952617	           88.632233	            5.891444	           -0.254468	            0.005503	           -0.680284	           -0.181657	           -0.768432	           -0.051078
            0.005500	            7.370514	           27.230586	           -2.010973	           -0.214492	            0.006221	           -0.404037	            0.109143	            0.403232	           -0.029779	           20.221464	           83.474712	            5.497940	           -0.254131	            0.005492	           -0.677022	           -0.156026	           -0.644078	           -0.042421
            0.006000	            7.507590	           25.969933	           -2.291860	           -0.217495	            0.006235	           -0.407382	           -0.003318	           -0.011476	            0.001013	           20.045157	           80.345180	            5.017569	           -0.255145	            0.005493	           -0.678125	           -0.115720	           -0.463829	           -0.028966
            0.006500	            6.820844	           24.166160	           -2.068604	           -0.214823	            0.006252	           -0.411224	           -0.093875	           -0.332599	            0.028470	           19.217145	           76.106732	            5.002815	           -0.253195	            0.005497	           -0.677317	           -0.111898	           -0.443156	           -0.029131
            0.007000	            6.455631	           23.262402	           -1.521287	           -0.215723	            0.006222	           -0.404244	           -0.058439	           -0.210581	            0.013771	           19.045093	           71.870134	            5.128566	           -0.254278	            0.005487	           -0.675699	           -0.150215	           -0.566865	           -0.040451
            0.007500	            6.226307	           20.739621	           -1.760819	           -0.208626	            0.006236	           -0.407294	            0.076970	            0.256385	           -0.021767	           19.055707	           68.923928	            5.071125	           -0.254315	            0.005497	           -0.678579	           -0.175105	           -0.633349	           -0.046599
            0.008000	            6.135292	           18.936357	           -1.630754	           -0.205789	            0.006198	           -0.398374	            0.195154	            0.602336	           -0.051872	           18.880935	           65.424441	            5.058721	           -0.253599	            0.005502	           -0.679247	           -0.216121	           -0.748884	           -0.057905
            0.008500	            5.631136	           17.674596	           -1.680769	           -0.204035	            0.006176	           -0.393150	            0.169903	            0.533280	           -0.050712	           18.514714	           63.029654	            4.909554	           -0.252719	            0.005511	           -0.680754	           -0.192573	           -0.655576	           -0.051065
            0.009000	            5.218908	           16.953061	           -1.591125	           -0.203593	            0.006195	           -0.397516	            0.060303	            0.195889	           -0.018385	           18.249545	           58.609246	            4.846976	           -0.252716	            0.005504	           -0.678897	           -0.177559	           -0.570238	           -0.047159
            0.009500	            4.897180	           15.873174	           -2.007669	           -0.210232	            0.006219	           -0.403507	           -0.069697	           -0.225908	            0.028573	           17.320502	           56.396251	            4.792562	           -0.254379	            0.005502	           -0.679970	           -0.129733	           -0.422417	           -0.035897
            0.010000	            4.438768	           15.152220	           -2.055479	           -0.210931	            0.006232	           -0.406422	           -0.117430	           -0.400861	            0.054379	           16.961592	           51.975840	            4.636168	           -0.252886	            0.005492	           -0.675650	           -0.152400	           -0.467004	           -0.041656
            0.010500	            4.301422	           13.529998	           -2.107951	           -0.207930	            0.006213	           -0.402004	           -0.054295	           -0.170782	            0.026608	           16.410027	           49.027437	            4.625894	           -0.254144	            0.005487	           -0.675573	           -0.144691	           -0.432285	           -0.040788
            0.011000	            3.706098	           13.168369	           -1.878738	           -0.203393	            0.006161	           -0.389707	            0.056792	            0.201790	           -0.028790	           16.138315	           46.447676	            4.804527	           -0.251777	            0.005503	           -0.677502	           -0.190455	           -0.548148	           -0.056700
            0.011500	            3.340055	           12.446252	           -1.651640	           -0.208237	            0.006139	           -0.384683	            0.112432	            0.418963	           -0.055597	           16.103992	           42.949525	            4.557422	           -0.252984	            0.005498	           -0.677362	           -0.260694	           -0.695274	           -0.073776
            0.012000	            3.203244	           11.003314	           -1.474059	           -0.202778	            0.006096	           -0.374480	            0.103483	            0.355468	           -0.047620	           15.644857	           40.369255	            4.689207	           -0.251885	            0.005502	           -0.677537	           -0.257506	           -0.664457	           -0.077182
            0.012500	            2.607384	           10.462402	           -1.474899	           -0.206621	            0.006173	           -0.392477	           -0.001272	           -0.005102	            0.000719	           15.230499	           38.342268	            4.635231	           -0.250920	            0.005512	           -0.679385	           -0.194310	           -0.489168	           -0.059136
            0.013000	            2.468866	            9.022413	           -1.985156	           -0.233013	            0.005581	           -0.255695	            1.226285	           -0.702161	            0.324757	           14.769167	           36.316117	            4.299705	           -0.254005	            0.005506	           -0.680686	           -0.141279	           -0.347393	           -0.041130
